
              <svg id="sw-js-blob-svg" viewBox="0 0 100 100" xmlns="http://www.w3.org/2000/svg" version="1.1">
                    <defs> 
                        <linearGradient id="sw-gradient" x1="0" x2="1" y1="1" y2="0">
                            <stop id="stop1" stop-color="rgba(209, 209, 209, 1)" offset="0%"></stop>
                            <stop id="stop2" stop-color="rgba(117.424, 137.893, 155.142, 1)" offset="100%"></stop>
                        </linearGradient>
                    </defs>
                <path fill="url(#sw-gradient)" d="M22.7,-26.9C29.8,-21.1,36.1,-14.3,38.7,-5.9C41.2,2.5,40,12.4,34.9,19.1C29.8,25.8,20.8,29.1,11.6,32.8C2.5,36.5,-6.9,40.6,-14.1,38.2C-21.3,35.7,-26.3,26.9,-31,18.2C-35.6,9.5,-39.9,0.8,-38.4,-6.5C-36.8,-13.9,-29.4,-20.1,-22,-25.8C-14.7,-31.5,-7.3,-36.8,0.2,-37.1C7.8,-37.4,15.6,-32.7,22.7,-26.9Z" width="100%" height="100%" transform="translate(50 50)" stroke-width="0" style="transition: all 0.3s ease 0s;" stroke="url(#sw-gradient)"></path>
              </svg>